<mxfile host="app.diagrams.net" modified="2024-03-13T07:45:33.057Z" agent="Mozilla/5.0 (Windows NT 10.0; Win64; x64) AppleWebKit/537.36 (KHTML, like Gecko) Chrome/122.0.0.0 Safari/537.36" version="24.0.5" etag="6lNO1nL5A0X27sBIjtAf" type="github">
  <diagram name="Page-1" id="3CrpBZXuw7Zjme9PmhH4">
    <mxGraphModel>
      <root>
        <mxCell id="0" />
        <mxCell id="1" parent="0" />
      </root>
    </mxGraphModel>
  </diagram>
</mxfile>
